<?xml version="1.0" standalone="no"?>
<!DOCTYPE svg PUBLIC "-//W3C//DTD SVG 20010904//EN"
 "http://www.w3.org/TR/2001/REC-SVG-20010904/DTD/svg10.dtd">
<svg version="1.0" xmlns="http://www.w3.org/2000/svg"
 width="400.000000pt" height="400.000000pt" viewBox="0 0 400.000000 400.000000"
 preserveAspectRatio="xMidYMid meet">
<metadata>
Created by potrace 1.16, written by Peter Selinger 2001-2019
</metadata>
<g transform="translate(0.000000,400.000000) scale(0.100000,-0.100000)"
fill="#000000" stroke="none">
<path d="M1890 3874 c-126 -15 -205 -28 -275 -45 -557 -138 -1002 -495 -1249
-1004 -276 -568 -240 -1248 95 -1783 292 -468 756 -772 1314 -863 103 -17 426
-17 530 0 689 110 1250 568 1484 1211 168 464 141 989 -74 1434 -268 551 -775
930 -1385 1032 -84 15 -372 26 -440 18z m455 -48 c422 -75 799 -287 1075 -604
198 -228 357 -549 414 -832 67 -340 36 -721 -85 -1027 -63 -159 -181 -366
-278 -488 -47 -58 -190 -204 -252 -257 -197 -166 -463 -303 -716 -369 -639
-164 -1308 20 -1765 487 -158 162 -250 293 -348 496 -116 241 -166 445 -177
714 -21 520 174 1013 547 1382 292 289 667 463 1110 516 76 9 389 -3 475 -18z"/>
<path d="M770 2783 c0 -10 -5 -94 -10 -187 -9 -135 -8 -171 2 -177 20 -12 31
6 44 71 16 76 61 142 122 177 45 27 52 28 220 32 l173 3 -3 -693 c-3 -640 -4
-697 -21 -729 -24 -50 -67 -72 -148 -78 -59 -4 -69 -7 -69 -23 0 -18 15 -19
350 -19 335 0 350 1 350 19 0 15 -10 19 -65 23 -36 3 -78 14 -97 25 -65 38
-63 7 -66 777 l-3 698 168 -4 c193 -4 231 -15 295 -86 36 -39 68 -119 68 -168
0 -22 35 -40 45 -24 3 5 1 89 -5 187 -5 98 -10 181 -10 186 0 4 -301 7 -670 7
-631 0 -670 -1 -670 -17z"/>
<path d="M2606 2549 c-58 -14 -113 -48 -141 -90 -22 -31 -26 -45 -23 -98 l3
-62 21 19 c46 43 86 55 196 60 l107 5 -4 -34 c-30 -230 -46 -535 -35 -644 11
-106 20 -142 54 -200 30 -50 108 -95 166 -95 48 0 135 44 166 85 29 38 60 127
72 208 9 55 8 57 -13 57 -16 0 -24 -8 -28 -27 -23 -107 -141 -155 -223 -90
-48 38 -64 89 -64 217 0 103 24 441 36 498 4 22 5 22 194 22 l190 0 0 90 0 90
-317 -1 c-175 -1 -335 -5 -357 -10z"/>
</g>
</svg>
